<svg xmlns="http://www.w3.org/2000/svg" viewBox="0 0 1440 320">
  <path fill="#0099ff" fill-opacity="1" d="M0,96L24,133.3C48,171,96,245,144,256C192,267,240,213,288,197.3C336,181,384,203,432,224C480,245,528,267,576,272C624,277,672,267,720,234.7C768,203,816,149,864,144C912,139,960,181,1008,192C1056,203,1104,181,1152,197.3C1200,213,1248,267,1296,288C1344,309,1392,299,1416,293.3L1440,288L1440,0L1416,0C1392,0,1344,0,1296,0C1248,0,1200,0,1152,0C1104,0,1056,0,1008,0C960,0,912,0,864,0C816,0,768,0,720,0C672,0,624,0,576,0C528,0,480,0,432,0C384,0,336,0,288,0C240,0,192,0,144,0C96,0,48,0,24,0L0,0Z"></path>
</svg>